<mxfile host="app.diagrams.net" modified="2023-04-27T20:50:46.658Z" agent="Mozilla/5.0 (Macintosh; Intel Mac OS X 10_15_7) AppleWebKit/537.36 (KHTML, like Gecko) Chrome/112.0.0.0 Safari/537.36" version="21.1.5" etag="BIL2X6DR-J6fxqbJ4ajC" type="github">
  <diagram name="PÃ¡gina-1" id="zAh2SZTSp3RLi3I47iuh">
    <mxGraphModel>
      <root>
        <mxCell id="0" />
        <mxCell id="1" parent="0" />
      </root>
    </mxGraphModel>
  </diagram>
</mxfile>
